<mxfile host="drawio-plugin" modified="2022-11-08T18:53:11.088Z" agent="5.0 (Windows NT 6.2; Win64; x64) AppleWebKit/537.36 (KHTML, like Gecko) Chrome/98.0.4758.102 Safari/537.36" etag="vBv-Lvs3OnotWsX4NVB0" version="15.5.4" type="embed" pages="2"><diagram id="imdrc2UIk3vCbtPCmj0C" name="HandView"><mxGraphModel dx="618" dy="295" grid="1" gridSize="10" guides="1" tooltips="1" connect="1" arrows="1" fold="1" page="1" pageScale="1" pageWidth="850" pageHeight="1100" math="0" shadow="0"><root><mxCell id="0"/><mxCell id="1" parent="0"/><mxCell id="6" value="HandView" style="swimlane;fontStyle=1;align=center;verticalAlign=top;childLayout=stackLayout;horizontal=1;startSize=26;horizontalStack=0;resizeParent=1;resizeParentMax=0;resizeLast=0;collapsible=1;marginBottom=0;" parent="1" vertex="1"><mxGeometry x="335" y="510" width="180" height="110" as="geometry"/></mxCell><mxCell id="10" value="- handContainer: JPanel&#10;- tiles: List&lt;TileView&gt;" style="text;strokeColor=none;fillColor=none;align=left;verticalAlign=top;spacingLeft=4;spacingRight=4;overflow=hidden;rotatable=0;points=[[0,0.5],[1,0.5]];portConstraint=eastwest;" parent="6" vertex="1"><mxGeometry y="26" width="180" height="34" as="geometry"/></mxCell><mxCell id="8" value="" style="line;strokeWidth=1;fillColor=none;align=left;verticalAlign=middle;spacingTop=-1;spacingLeft=3;spacingRight=3;rotatable=0;labelPosition=right;points=[];portConstraint=eastwest;" parent="6" vertex="1"><mxGeometry y="60" width="180" height="8" as="geometry"/></mxCell><mxCell id="9" value="+ update(ScrabbleModel): void&#10;- setTiles(Hand): void" style="text;strokeColor=none;fillColor=none;align=left;verticalAlign=top;spacingLeft=4;spacingRight=4;overflow=hidden;rotatable=0;points=[[0,0.5],[1,0.5]];portConstraint=eastwest;" parent="6" vertex="1"><mxGeometry y="68" width="180" height="42" as="geometry"/></mxCell><mxCell id="15" value="&lt;&lt;interface&gt;&gt;&#10;ModelListener" style="swimlane;fontStyle=1;childLayout=stackLayout;horizontal=1;startSize=30;fillColor=none;horizontalStack=0;resizeParent=1;resizeParentMax=0;resizeLast=0;collapsible=1;marginBottom=0;" parent="1" vertex="1"><mxGeometry x="315" y="310" width="220" height="54" as="geometry"/></mxCell><mxCell id="17" value="+ handleModelEvent(ModelEvent): void" style="text;strokeColor=none;fillColor=none;align=left;verticalAlign=top;spacingLeft=4;spacingRight=4;overflow=hidden;rotatable=0;points=[[0,0.5],[1,0.5]];portConstraint=eastwest;fontStyle=0" parent="15" vertex="1"><mxGeometry y="30" width="220" height="24" as="geometry"/></mxCell><mxCell id="21" value="ScrabbleModel" style="swimlane;fontStyle=1;align=center;verticalAlign=top;childLayout=stackLayout;horizontal=1;startSize=26;horizontalStack=0;resizeParent=1;resizeParentMax=0;resizeLast=0;collapsible=1;marginBottom=0;" parent="1" vertex="1"><mxGeometry x="290" y="180" width="270" height="80" as="geometry"/></mxCell><mxCell id="23" value="+ modelListeners: List&lt;ScrabbleView&gt;" style="text;strokeColor=none;fillColor=none;align=left;verticalAlign=top;spacingLeft=4;spacingRight=4;overflow=hidden;rotatable=0;points=[[0,0.5],[1,0.5]];portConstraint=eastwest;" parent="21" vertex="1"><mxGeometry y="26" width="270" height="22" as="geometry"/></mxCell><mxCell id="22" value="" style="line;strokeWidth=1;fillColor=none;align=left;verticalAlign=middle;spacingTop=-1;spacingLeft=3;spacingRight=3;rotatable=0;labelPosition=right;points=[];portConstraint=eastwest;" parent="21" vertex="1"><mxGeometry y="48" width="270" height="2" as="geometry"/></mxCell><mxCell id="24" value="" style="line;strokeWidth=1;fillColor=none;align=left;verticalAlign=middle;spacingTop=-1;spacingLeft=3;spacingRight=3;rotatable=0;labelPosition=right;points=[];portConstraint=eastwest;" parent="21" vertex="1"><mxGeometry y="50" width="270" height="8" as="geometry"/></mxCell><mxCell id="25" value="&lt;span&gt;&amp;nbsp;-&amp;nbsp;&lt;/span&gt;notifyListeners&lt;span&gt;(): void&lt;br&gt;&lt;/span&gt;" style="text;html=1;strokeColor=none;fillColor=none;align=left;verticalAlign=middle;whiteSpace=wrap;rounded=0;" parent="21" vertex="1"><mxGeometry y="58" width="270" height="22" as="geometry"/></mxCell><mxCell id="26" value="" style="endArrow=diamondThin;endFill=0;endSize=24;html=1;rounded=0;" parent="1" source="15" target="21" edge="1"><mxGeometry width="160" relative="1" as="geometry"><mxPoint x="160" y="140" as="sourcePoint"/><mxPoint x="320" y="140" as="targetPoint"/></mxGeometry></mxCell><mxCell id="27" value="TileView" style="swimlane;fontStyle=1;align=center;verticalAlign=top;childLayout=stackLayout;horizontal=1;startSize=26;horizontalStack=0;resizeParent=1;resizeParentMax=0;resizeLast=0;collapsible=1;marginBottom=0;" parent="1" vertex="1"><mxGeometry x="575" y="510" width="240" height="106" as="geometry"/></mxCell><mxCell id="29" value="" style="line;strokeWidth=1;fillColor=none;align=left;verticalAlign=middle;spacingTop=-1;spacingLeft=3;spacingRight=3;rotatable=0;labelPosition=right;points=[];portConstraint=eastwest;" parent="27" vertex="1"><mxGeometry y="26" width="240" height="8" as="geometry"/></mxCell><mxCell id="48" value="+ TileView(Tile): void&#10;# flipSelection(): void&#10;# highlight(): void&#10;# unhighlight(): void" style="text;strokeColor=none;fillColor=none;align=left;verticalAlign=top;spacingLeft=4;spacingRight=4;overflow=hidden;rotatable=0;points=[[0,0.5],[1,0.5]];portConstraint=eastwest;spacingBottom=-1;" parent="27" vertex="1"><mxGeometry y="34" width="240" height="72" as="geometry"/></mxCell><mxCell id="41" value="" style="endArrow=block;endSize=16;endFill=0;html=1;rounded=0;" parent="1" source="27" target="gvYKq0j118C98wlQxHkf-58" edge="1"><mxGeometry width="160" relative="1" as="geometry"><mxPoint x="415" y="134" as="sourcePoint"/><mxPoint x="705" y="98" as="targetPoint"/></mxGeometry></mxCell><mxCell id="43" value="" style="endArrow=diamondThin;endFill=0;endSize=24;html=1;rounded=0;" parent="1" source="27" target="6" edge="1"><mxGeometry width="160" relative="1" as="geometry"><mxPoint x="340" y="149.51999999999998" as="sourcePoint"/><mxPoint x="290" y="150.91999999999996" as="targetPoint"/></mxGeometry></mxCell><mxCell id="44" value="" style="endArrow=block;dashed=1;endFill=0;endSize=12;html=1;rounded=0;" parent="1" source="6" target="86ChZG9F9VQaobxcDGxL-67" edge="1"><mxGeometry width="160" relative="1" as="geometry"><mxPoint x="400" y="250" as="sourcePoint"/><mxPoint x="420" y="430" as="targetPoint"/></mxGeometry></mxCell><mxCell id="gvYKq0j118C98wlQxHkf-58" value="&lt;&lt;abstract&gt;&gt;&#10;HandTileController" style="swimlane;fontStyle=1;align=center;verticalAlign=top;childLayout=stackLayout;horizontal=1;startSize=42;horizontalStack=0;resizeParent=1;resizeParentMax=0;resizeLast=0;collapsible=1;marginBottom=0;" parent="1" vertex="1"><mxGeometry x="550" y="314" width="290" height="50" as="geometry"/></mxCell><mxCell id="gvYKq0j118C98wlQxHkf-60" value="" style="line;strokeWidth=1;fillColor=none;align=left;verticalAlign=middle;spacingTop=-1;spacingLeft=3;spacingRight=3;rotatable=0;labelPosition=right;points=[];portConstraint=eastwest;" parent="gvYKq0j118C98wlQxHkf-58" vertex="1"><mxGeometry y="42" width="290" height="8" as="geometry"/></mxCell><mxCell id="62" value="" style="endArrow=none;dashed=1;html=1;dashPattern=1 3;strokeWidth=2;rounded=0;" parent="1" source="gvYKq0j118C98wlQxHkf-58" target="64" edge="1"><mxGeometry width="50" height="50" relative="1" as="geometry"><mxPoint x="415" y="254" as="sourcePoint"/><mxPoint x="689.6728971962616" y="284" as="targetPoint"/></mxGeometry></mxCell><mxCell id="64" value="See controller UML" style="shape=note;whiteSpace=wrap;html=1;backgroundOutline=1;darkOpacity=0.05;size=9;" parent="1" vertex="1"><mxGeometry x="630" y="250" width="130" height="40" as="geometry"/></mxCell><mxCell id="65" value="Handles view aspect of letter Tile (extends select, highlight for indication)" style="shape=note;whiteSpace=wrap;html=1;backgroundOutline=1;darkOpacity=0.05;size=9;" parent="1" vertex="1"><mxGeometry x="585" y="690" width="220" height="40" as="geometry"/></mxCell><mxCell id="67" value="" style="endArrow=none;dashed=1;html=1;dashPattern=1 3;strokeWidth=2;rounded=0;" parent="1" source="65" target="27" edge="1"><mxGeometry width="50" height="50" relative="1" as="geometry"><mxPoint x="415" y="354" as="sourcePoint"/><mxPoint x="465" y="304" as="targetPoint"/></mxGeometry></mxCell><mxCell id="86ChZG9F9VQaobxcDGxL-67" value="&lt;&lt;interface&gt;&gt;&#10;HandChangeListener" style="swimlane;fontStyle=1;childLayout=stackLayout;horizontal=1;startSize=30;fillColor=none;horizontalStack=0;resizeParent=1;resizeParentMax=0;resizeLast=0;collapsible=1;marginBottom=0;" vertex="1" parent="1"><mxGeometry x="277" y="410" width="298" height="54" as="geometry"/></mxCell><mxCell id="86ChZG9F9VQaobxcDGxL-68" value="+ handleHandChangeEvent(HandChangeEvent): void" style="text;strokeColor=none;fillColor=none;align=left;verticalAlign=top;spacingLeft=4;spacingRight=4;overflow=hidden;rotatable=0;points=[[0,0.5],[1,0.5]];portConstraint=eastwest;fontStyle=0" vertex="1" parent="86ChZG9F9VQaobxcDGxL-67"><mxGeometry y="30" width="298" height="24" as="geometry"/></mxCell><mxCell id="86ChZG9F9VQaobxcDGxL-69" value="" style="endArrow=block;endSize=16;endFill=0;html=1;rounded=0;" edge="1" parent="1" source="86ChZG9F9VQaobxcDGxL-67" target="15"><mxGeometry width="160" relative="1" as="geometry"><mxPoint x="705" y="490" as="sourcePoint"/><mxPoint x="705" y="374" as="targetPoint"/></mxGeometry></mxCell></root></mxGraphModel></diagram><diagram id="0tuj-iBOiGT-VxvOUSF6" name="HandController"><mxGraphModel dx="574" dy="416" grid="1" gridSize="10" guides="1" tooltips="1" connect="1" arrows="1" fold="1" page="1" pageScale="1" pageWidth="850" pageHeight="1100" math="0" shadow="0"><root><mxCell id="3sHDBAHJe_VRRzwY2jtt-0"/><mxCell id="3sHDBAHJe_VRRzwY2jtt-1" parent="3sHDBAHJe_VRRzwY2jtt-0"/><mxCell id="3sHDBAHJe_VRRzwY2jtt-2" value="&lt;&lt;abstract&gt;&gt;&#10;HandTileController" style="swimlane;fontStyle=1;align=center;verticalAlign=top;childLayout=stackLayout;horizontal=1;startSize=36;horizontalStack=0;resizeParent=1;resizeParentMax=0;resizeLast=0;collapsible=1;marginBottom=0;" parent="3sHDBAHJe_VRRzwY2jtt-1" vertex="1"><mxGeometry x="100" y="274" width="290" height="160" as="geometry"/></mxCell><mxCell id="3sHDBAHJe_VRRzwY2jtt-3" value="- controllerListeners: SCrontollerListener&#10;- tile: Tile" style="text;strokeColor=none;fillColor=none;align=left;verticalAlign=top;spacingLeft=4;spacingRight=4;overflow=hidden;rotatable=0;points=[[0,0.5],[1,0.5]];portConstraint=eastwest;" parent="3sHDBAHJe_VRRzwY2jtt-2" vertex="1"><mxGeometry y="36" width="290" height="34" as="geometry"/></mxCell><mxCell id="3sHDBAHJe_VRRzwY2jtt-4" value="" style="line;strokeWidth=1;fillColor=none;align=left;verticalAlign=middle;spacingTop=-1;spacingLeft=3;spacingRight=3;rotatable=0;labelPosition=right;points=[];portConstraint=eastwest;" parent="3sHDBAHJe_VRRzwY2jtt-2" vertex="1"><mxGeometry y="70" width="290" height="8" as="geometry"/></mxCell><mxCell id="3sHDBAHJe_VRRzwY2jtt-5" value="+ HandController(Letter): void&#10;+ addControllerListener(SControllerListener): void&#10;# flipSelection(): void&#10;# highlight(): void&#10;# unhighlight(): void" style="text;strokeColor=none;fillColor=none;align=left;verticalAlign=top;spacingLeft=4;spacingRight=4;overflow=hidden;rotatable=0;points=[[0,0.5],[1,0.5]];portConstraint=eastwest;" parent="3sHDBAHJe_VRRzwY2jtt-2" vertex="1"><mxGeometry y="78" width="290" height="82" as="geometry"/></mxCell><mxCell id="3sHDBAHJe_VRRzwY2jtt-6" value="&lt;&lt;abstract&gt;&gt;&#10;MouseAdapter" style="swimlane;fontStyle=1;childLayout=stackLayout;horizontal=1;startSize=30;fillColor=none;horizontalStack=0;resizeParent=1;resizeParentMax=0;resizeLast=0;collapsible=1;marginBottom=0;" parent="3sHDBAHJe_VRRzwY2jtt-1" vertex="1"><mxGeometry x="560" y="60" width="180" height="80" as="geometry"/></mxCell><mxCell id="3sHDBAHJe_VRRzwY2jtt-7" value="+ mouseClicked(MouseEvent)&#10;+ mouseExited(MouseEvent)&#10;+ mouseEntered(MouseEvent)" style="text;strokeColor=none;fillColor=none;align=left;verticalAlign=top;spacingLeft=4;spacingRight=4;overflow=hidden;rotatable=0;points=[[0,0.5],[1,0.5]];portConstraint=eastwest;fontStyle=0" parent="3sHDBAHJe_VRRzwY2jtt-6" vertex="1"><mxGeometry y="30" width="180" height="50" as="geometry"/></mxCell><mxCell id="3sHDBAHJe_VRRzwY2jtt-9" value="&lt;&lt;interface&gt;&gt;&#10;SController" style="swimlane;fontStyle=1;childLayout=stackLayout;horizontal=1;startSize=30;fillColor=none;horizontalStack=0;resizeParent=1;resizeParentMax=0;resizeLast=0;collapsible=1;marginBottom=0;" parent="3sHDBAHJe_VRRzwY2jtt-1" vertex="1"><mxGeometry x="510" y="334" width="290" height="70" as="geometry"/></mxCell><mxCell id="3sHDBAHJe_VRRzwY2jtt-10" value="+ addControllerListener(SControllerListener): void&#10;+ notifyControllerListeners(): void" style="text;strokeColor=none;fillColor=none;align=left;verticalAlign=top;spacingLeft=4;spacingRight=4;overflow=hidden;rotatable=0;points=[[0,0.5],[1,0.5]];portConstraint=eastwest;fontStyle=0" parent="3sHDBAHJe_VRRzwY2jtt-9" vertex="1"><mxGeometry y="30" width="290" height="40" as="geometry"/></mxCell><mxCell id="3sHDBAHJe_VRRzwY2jtt-11" value="" style="endArrow=block;dashed=1;endFill=0;endSize=12;html=1;rounded=0;" parent="3sHDBAHJe_VRRzwY2jtt-1" source="3sHDBAHJe_VRRzwY2jtt-2" target="3sHDBAHJe_VRRzwY2jtt-9" edge="1"><mxGeometry width="160" relative="1" as="geometry"><mxPoint x="400" y="299.5652173913044" as="sourcePoint"/><mxPoint x="245" y="230" as="targetPoint"/></mxGeometry></mxCell><mxCell id="3sHDBAHJe_VRRzwY2jtt-12" value="Flip selection notifiescontrol listeners;" style="shape=note;whiteSpace=wrap;html=1;backgroundOutline=1;darkOpacity=0.05;size=14;" parent="3sHDBAHJe_VRRzwY2jtt-1" vertex="1"><mxGeometry x="490" y="480" width="230" height="50" as="geometry"/></mxCell><mxCell id="3sHDBAHJe_VRRzwY2jtt-13" value="" style="endArrow=none;dashed=1;html=1;dashPattern=1 3;strokeWidth=2;rounded=0;" parent="3sHDBAHJe_VRRzwY2jtt-1" source="3sHDBAHJe_VRRzwY2jtt-12" target="3sHDBAHJe_VRRzwY2jtt-2" edge="1"><mxGeometry width="50" height="50" relative="1" as="geometry"><mxPoint x="685" y="290" as="sourcePoint"/><mxPoint x="685" y="270" as="targetPoint"/></mxGeometry></mxCell><mxCell id="fIHrrHM93_3xflL22wo_-0" value="MouseHandler" style="swimlane;fontStyle=1;align=center;verticalAlign=top;childLayout=stackLayout;horizontal=1;startSize=26;horizontalStack=0;resizeParent=1;resizeParentMax=0;resizeLast=0;collapsible=1;marginBottom=0;" vertex="1" parent="3sHDBAHJe_VRRzwY2jtt-1"><mxGeometry x="540" y="190" width="220" height="96" as="geometry"/></mxCell><mxCell id="fIHrrHM93_3xflL22wo_-2" value="" style="line;strokeWidth=1;fillColor=none;align=left;verticalAlign=middle;spacingTop=-1;spacingLeft=3;spacingRight=3;rotatable=0;labelPosition=right;points=[];portConstraint=eastwest;" vertex="1" parent="fIHrrHM93_3xflL22wo_-0"><mxGeometry y="26" width="220" height="8" as="geometry"/></mxCell><mxCell id="fIHrrHM93_3xflL22wo_-3" value="+ MouseHandler(): void&#10;+ mouseClicked(MouseEvent): void&#10;+ mouseExited(MouseEvent): void&#10;+ mouseEntered(MouseEvent): void&#10;" style="text;strokeColor=none;fillColor=none;align=left;verticalAlign=top;spacingLeft=4;spacingRight=4;overflow=hidden;rotatable=0;points=[[0,0.5],[1,0.5]];portConstraint=eastwest;" vertex="1" parent="fIHrrHM93_3xflL22wo_-0"><mxGeometry y="34" width="220" height="62" as="geometry"/></mxCell><mxCell id="fIHrrHM93_3xflL22wo_-4" value="JPanel" style="swimlane;fontStyle=1;align=center;verticalAlign=top;childLayout=stackLayout;horizontal=1;startSize=26;horizontalStack=0;resizeParent=1;resizeParentMax=0;resizeLast=0;collapsible=1;marginBottom=0;" vertex="1" parent="3sHDBAHJe_VRRzwY2jtt-1"><mxGeometry x="135" y="120" width="220" height="60" as="geometry"/></mxCell><mxCell id="fIHrrHM93_3xflL22wo_-6" value="" style="line;strokeWidth=1;fillColor=none;align=left;verticalAlign=middle;spacingTop=-1;spacingLeft=3;spacingRight=3;rotatable=0;labelPosition=right;points=[];portConstraint=eastwest;" vertex="1" parent="fIHrrHM93_3xflL22wo_-4"><mxGeometry y="26" width="220" height="8" as="geometry"/></mxCell><mxCell id="fIHrrHM93_3xflL22wo_-8" value="+ addMouseListener(): void" style="text;strokeColor=none;fillColor=none;align=left;verticalAlign=top;spacingLeft=4;spacingRight=4;overflow=hidden;rotatable=0;points=[[0,0.5],[1,0.5]];portConstraint=eastwest;" vertex="1" parent="fIHrrHM93_3xflL22wo_-4"><mxGeometry y="34" width="220" height="26" as="geometry"/></mxCell><mxCell id="fIHrrHM93_3xflL22wo_-10" value="" style="endArrow=open;startArrow=circlePlus;endFill=0;startFill=0;endSize=8;html=1;rounded=0;" edge="1" parent="3sHDBAHJe_VRRzwY2jtt-1" source="3sHDBAHJe_VRRzwY2jtt-2" target="fIHrrHM93_3xflL22wo_-0"><mxGeometry width="160" relative="1" as="geometry"><mxPoint x="370" y="310" as="sourcePoint"/><mxPoint x="490" y="180" as="targetPoint"/></mxGeometry></mxCell><mxCell id="fIHrrHM93_3xflL22wo_-11" value="" style="endArrow=block;endSize=16;endFill=0;html=1;rounded=0;" edge="1" parent="3sHDBAHJe_VRRzwY2jtt-1" source="3sHDBAHJe_VRRzwY2jtt-2" target="fIHrrHM93_3xflL22wo_-4"><mxGeometry width="160" relative="1" as="geometry"><mxPoint x="370" y="310" as="sourcePoint"/><mxPoint x="530" y="310" as="targetPoint"/></mxGeometry></mxCell><mxCell id="GtpeZxUbgAzMBP2RoYqJ-0" value="" style="endArrow=block;endSize=16;endFill=0;html=1;rounded=0;" edge="1" parent="3sHDBAHJe_VRRzwY2jtt-1" source="fIHrrHM93_3xflL22wo_-0" target="3sHDBAHJe_VRRzwY2jtt-6"><mxGeometry width="160" relative="1" as="geometry"><mxPoint x="255" y="284" as="sourcePoint"/><mxPoint x="255" y="190" as="targetPoint"/></mxGeometry></mxCell></root></mxGraphModel></diagram></mxfile>